<svg xmlns="http://www.w3.org/2000/svg" viewBox="0 0 33.51 31.32"><defs><style>.cls-1{fill:#262626;}.cls-2{fill:#30c6ff;}.cls-3{fill:#80be00;}</style></defs><title>icon-follow-kik</title><g id="Слой_2" data-name="Слой 2"><g id="Слой_1-2" data-name="Слой 1"><ellipse class="cls-1" cx="16.75" cy="15.66" rx="16.75" ry="15.66"/><path class="cls-1" d="M24.23,27.95c.66.78,2,3.58,9.1,1.82,0,0-3.11.31-3.14-7.19Z"/><path class="cls-2" d="M24.06,15.38a1.8,1.8,0,1,1-1.81,1.8A1.8,1.8,0,0,1,24.06,15.38Z"/><path class="cls-3" d="M21.16,20.86l0,0-3-4,2.12-2.08,0,0a1.63,1.63,0,1,0-2.38-2.22h0l-3,2.94,0-6h0s0-.06,0-.09a1.6,1.6,0,1,0-3.2,0s0,0,0,.06h0V21.74h0v0a1.59,1.59,0,0,0,3.18.09h0V19.75l.82-.76,2.69,3.59a1.61,1.61,0,0,0,1.39.81,1.63,1.63,0,0,0,1.62-1.64A1.65,1.65,0,0,0,21.16,20.86Z"/></g></g></svg>