<svg xmlns="http://www.w3.org/2000/svg" viewBox="0 0 30.87 31.32"><defs><style>.cls-1{fill:#00aff0;}</style></defs><title>icon-follow-skype</title><g id="Слой_2" data-name="Слой 2"><g id="Слой_1-2" data-name="Слой 1"><path class="cls-1" d="M20.27,31.1c-.42-.14-1.06-.28-1.41-.42s-.92-.21-2.47-.14a15.89,15.89,0,0,1-3.31-.14A14.9,14.9,0,0,1,1.3,19.67,13.42,13.42,0,0,1,1,15.51c0-2.75-.07-3-.42-4.09A8.51,8.51,0,0,1,8.57,0a9,9,0,0,1,3.53.78c.56.28.92.35,3.1.35a12.18,12.18,0,0,1,3.74.35,14.89,14.89,0,0,1,9.94,8,14.25,14.25,0,0,1,1.34,7.9A4.19,4.19,0,0,0,30.43,20a8.64,8.64,0,0,1-2.68,9.38,11.4,11.4,0,0,1-3.6,1.76,9.89,9.89,0,0,1-3.81-.07h-.07Zm-1.9-5.43a7.34,7.34,0,0,0,5.15-3.6,5.42,5.42,0,0,0-.63-5.92c-1.13-1.27-2.82-2-6.84-3-2.68-.63-3.31-.92-3.88-1.55A1.13,1.13,0,0,1,12,10a3.49,3.49,0,0,1,2.89-1.2c2-.14,3,.35,4.16,2.26.92,1.41,1.83,1.76,3,1.2,1.55-.78,1.41-3.31-.28-4.8s-3.38-1.9-6.35-1.9-5.22.63-6.63,2a3.94,3.94,0,0,0-1.34,3.53c0,1.83.21,2.4,1.41,3.46s2.33,1.62,6.13,2.54c2.68.63,3.39,1,4,1.69a1.72,1.72,0,0,1,.42,1.27,1.5,1.5,0,0,1-.63,1.41,4.79,4.79,0,0,1-3.74,1.13c-1.9-.14-2.75-.71-3.74-2.68-.71-1.34-1.27-1.83-2.19-1.83-2,0-2.75,1.69-1.69,3.88a7,7,0,0,0,5.08,3.67,20.33,20.33,0,0,0,5.85,0h-.07Z"/></g></g></svg>