<svg xmlns="http://www.w3.org/2000/svg" xmlns:xlink="http://www.w3.org/1999/xlink" viewBox="0 0 30.56 30.56"><defs><style>.cls-1{fill:#15508a;}.cls-2{fill:url(#Безымянный_градиент_73);}.cls-3{fill:#14254c;}.cls-4{fill:url(#Безымянный_градиент_21);}.cls-5{fill:#0f4b7e;}.cls-6{fill:url(#Безымянный_градиент_38);}</style><linearGradient id="Безымянный_градиент_73" x1="10.44" y1="0.35" x2="19.89" y2="29.5" gradientUnits="userSpaceOnUse"><stop offset="0" stop-color="#e49741"/><stop offset="0.29" stop-color="#e39440"/><stop offset="0.51" stop-color="#e08a3d"/><stop offset="0.7" stop-color="#db7a37"/><stop offset="0.88" stop-color="#d4642f"/><stop offset="1" stop-color="#ce4f28"/></linearGradient><radialGradient id="Безымянный_градиент_21" cx="19.15" cy="15.32" r="10.53" gradientTransform="translate(-2.9 0.74) scale(0.95 0.95)" gradientUnits="userSpaceOnUse"><stop offset="0.56" stop-color="#1b81c3"/><stop offset="1" stop-color="#0c52a2"/></radialGradient><radialGradient id="Безымянный_градиент_38" cx="18.63" cy="14.82" r="3.25" gradientTransform="translate(-2.9 0.74) scale(0.95 0.95)" gradientUnits="userSpaceOnUse"><stop offset="0.49" stop-color="#f5f5f5"/><stop offset="1" stop-color="#bdbdbd"/></radialGradient><symbol id="ресничка" data-name="ресничка" viewBox="0 0 12.75 65.75"><path class="cls-1" d="M0,65.75c8-19.6,12.33-31.5,12.72-42.88C13.06,12.89,10.67,5.08,6,0,7.25,3.06,9,17,7.88,24.5,6.14,35.8.83,47.92,0,65.75Z"/></symbol></defs><title>icon-follow-news360</title><g id="Слой_2" data-name="Слой 2"><g id="Слой_1-2" data-name="Слой 1"><circle class="cls-2" cx="15.28" cy="15.28" r="15.28"/><circle class="cls-3" cx="15.28" cy="15.28" r="10.77"/><circle class="cls-4" cx="15.28" cy="15.28" r="9.99"/><use width="12.75" height="65.75" transform="translate(15.28 4.98) scale(0.16 0.16)" xlink:href="#ресничка"/><use width="12.75" height="65.75" transform="matrix(0.15, 0.05, -0.05, 0.15, 18.79, 5.59)" xlink:href="#ресничка"/><use width="12.75" height="65.75" transform="matrix(0.12, 0.1, -0.1, 0.12, 21.88, 7.37)" xlink:href="#ресничка"/><use width="12.75" height="65.75" transform="matrix(0.08, 0.14, -0.14, 0.08, 24.18, 10.09)" xlink:href="#ресничка"/><use width="12.75" height="65.75" transform="matrix(0.03, 0.15, -0.15, 0.03, 25.42, 13.44)" xlink:href="#ресничка"/><use width="12.75" height="65.75" transform="matrix(-0.03, 0.15, -0.15, -0.03, 25.44, 17)" xlink:href="#ресничка"/><use width="12.75" height="65.75" transform="matrix(-0.08, 0.14, -0.14, -0.08, 24.25, 20.36)" xlink:href="#ресничка"/><use width="12.75" height="65.75" transform="matrix(-0.12, 0.1, -0.1, -0.12, 21.98, 23.11)" xlink:href="#ресничка"/><use width="12.75" height="65.75" transform="matrix(-0.15, 0.06, -0.06, -0.15, 18.91, 24.93)" xlink:href="#ресничка"/><use width="12.75" height="65.75" transform="matrix(-0.16, 0, 0, -0.16, 15.4, 25.58)" xlink:href="#ресничка"/><use width="12.75" height="65.75" transform="matrix(-0.15, -0.05, 0.05, -0.15, 11.89, 25.01)" xlink:href="#ресничка"/><use width="12.75" height="65.75" transform="matrix(-0.12, -0.1, 0.1, -0.12, 8.77, 23.27)" xlink:href="#ресничка"/><use width="12.75" height="65.75" transform="matrix(-0.08, -0.13, 0.13, -0.08, 6.44, 20.58)" xlink:href="#ресничка"/><use width="12.75" height="65.75" transform="matrix(-0.03, -0.15, 0.15, -0.03, 5.17, 17.25)" xlink:href="#ресничка"/><use width="12.75" height="65.75" transform="matrix(0.02, -0.15, 0.15, 0.02, 5.1, 13.68)" xlink:href="#ресничка"/><use width="12.75" height="65.75" transform="matrix(0.08, -0.14, 0.14, 0.08, 6.25, 10.31)" xlink:href="#ресничка"/><use width="12.75" height="65.75" transform="matrix(0.12, -0.1, 0.1, 0.12, 8.49, 7.53)" xlink:href="#ресничка"/><use width="12.75" height="65.75" transform="matrix(0.15, -0.05, 0.05, 0.15, 11.75, 5.6)" xlink:href="#ресничка"/><circle class="cls-5" cx="15.28" cy="15.28" r="4.08"/><circle class="cls-6" cx="15.28" cy="15.28" r="3.07"/><path class="cls-3" d="M15.28,4.51A10.77,10.77,0,1,0,26.05,15.28,10.77,10.77,0,0,0,15.28,4.51Zm0,20.76a10,10,0,1,1,10-10A10,10,0,0,1,15.28,25.27Z"/></g></g></svg>