<svg xmlns="http://www.w3.org/2000/svg" xmlns:xlink="http://www.w3.org/1999/xlink" viewBox="0 0 31.32 31.32"><defs><style>.cls-1{fill:#20a4e3;}.cls-2{fill:#c8daea;}.cls-3{fill:#a9c9dd;}.cls-4{fill:url(#Безымянный_градиент_2);}</style><linearGradient id="Безымянный_градиент_2" x1="-455.53" y1="457.98" x2="-455.2" y2="458.51" gradientTransform="translate(4761.77 -4755.06) scale(10.42)" gradientUnits="userSpaceOnUse"><stop offset="0" stop-color="#eff7fc"/><stop offset="1" stop-color="#fff"/></linearGradient></defs><title>icon-follow-telegram</title><g id="Слой_2" data-name="Слой 2"><g id="Слой_1-2" data-name="Слой 1"><rect class="cls-1" width="31.32" height="31.32" rx="15.17" ry="15.17"/><path id="path2993" class="cls-2" d="M12.3,22.7c-.54,0-.44-.21-.64-.72l-1.59-5.23,9.84-6.15,1.15.31-1,2.61Z"/><path id="path2989" class="cls-3" d="M12.3,22.7a1.09,1.09,0,0,0,.83-.42l5-4.87-2.85-.7-2.64,1.67-.35,4.17Z"/><path id="path2991" class="cls-4" d="M12.58,18.44l6.73,5c.76.42,1.32.21,1.52-.71l2.74-12.9c.28-1.13-.43-1.63-1.17-1.29L6.32,14.7c-1.1.44-1.08,1.06-.19,1.32l4.13,1.29,9.55-6c.44-.28.86-.13.53.18Z"/></g></g></svg>